<!-- Copyright (c) 2015 Tiancheng "Timothy" Gu; MIT license -->
<svg xmlns="http://www.w3.org/2000/svg" xmlns:xlink="http://www.w3.org/1999/xlink" width="40" height="40"><defs><linearGradient id="d"><stop offset="0" stop-color="#ff9400"/><stop offset="1" stop-color="#fefd16" stop-opacity=".806"/></linearGradient><linearGradient id="c"><stop offset="0" stop-color="#e2e2e2"/><stop offset="1" stop-color="#d2d2d2"/></linearGradient><linearGradient id="b"><stop offset="0" stop-opacity=".59"/><stop offset="1" stop-opacity=".381"/></linearGradient><linearGradient id="a"><stop offset="0" stop-color="#999b9a"/><stop offset="1" stop-color="#a6a6a6"/></linearGradient><linearGradient xlink:href="#a" id="f" x1="19.492" y1="31.737" x2="18.814" y2="4.788" gradientUnits="userSpaceOnUse"/><radialGradient xlink:href="#b" id="e" cx="18.686" cy="17.301" fx="18.686" fy="17.301" r="15.212" gradientTransform="matrix(0 1.039 -1.151 0 38.594 -1.077)" gradientUnits="userSpaceOnUse"/><linearGradient xlink:href="#c" id="h" x1="22.412" y1="2.248" x2="20.015" y2="17.227" gradientUnits="userSpaceOnUse"/><radialGradient xlink:href="#b" id="g" cx="17.618" cy="13.985" fx="17.618" fy="13.985" r="10.307" gradientTransform="matrix(1 0 0 .606 0 10.416)" gradientUnits="userSpaceOnUse"/><radialGradient xlink:href="#d" id="i" cx="19.296" cy="17.948" fx="19.296" fy="17.948" r="5.773" gradientTransform="matrix(1 0 0 1.083 0 -1.371)" gradientUnits="userSpaceOnUse"/><radialGradient xlink:href="#d" id="j" cx="19.399372" cy="17.892538" fx="19.399372" fy="17.892538" r="4.5974575" gradientTransform="matrix(1.3278479,0,0,1.2619213,-6.2860684,-4.4185615)" gradientUnits="userSpaceOnUse"/></defs><path d="M40 23.73S20.126 37.686 20 37.627l-20-13.9c0 7.138 6.87 15.425 20 15.425 13.13 0 20-8.23 20-15.424z" fill="#53795b"/><path d="M40 23.73c0 6.658-8.488 13.898-20 13.898s-20-7.155-20-13.9c0-6.74 9.632-13.896 20-13.896s20 7.24 20 13.9z" fill="#84af8d"/><path d="M5.438,22.045C9.245,24.768 13.815,21.441 13.815,21.441 12.551,19.17 7,20.474 5.438,22.045" fill="url(#e)"/><path d="M5.04 15.508C7.696 18.26 11.016 20 11.016 20S5.523 25.095 4.76 30.35c7.79-.37 13.49-2.184 13.97-5.18 0 0 4.486 5.15 10 9.067.592-5.762 1.847-11.72 1.847-11.72s2.867-3.633 4.338-7.432c-4.66-2.543-13.39-4.83-13.39-4.83l-11.1 1.016S6.99 13.22 5.04 15.51z" fill="url(#e)"/><path d="M4.915 11.525c2.458 4.068 6.44 7.797 6.44 7.797s-4.83 4.407-6.27 8.39c10.593.508 14.407-1.27 14.407-1.27s4.237 3.05 10.17 5.168c.592-5.763-.17-12.627-.17-12.627S32.542 15 35.254 9.66c-7.07.057-13.848 1.553-13.848 1.553s-5.544-4.49-10.728-6.467c-.51 3.305-.254 6.525-.254 6.525s-2.543-.42-5.51.257z" fill="url(#f)"/><path d="M17.02 33.288c3.594-2.157 5.317-6.45 5.317-6.45l8.316-4.786-.758 3.978s3.723-1.46 5.94-3.528C27.79 15.66 16.54 27.296 16.54 27.296c-1.68 2.157.48 5.992.48 5.992z" fill="url(#g)"/><path d="M17.618 30.772s9.348-5.394 17.737-11.746l-9.108-7.07s-.48-6.353-3.596-9.948c-2.034 1.918-3.233 3.476-4.07 5.753l-4.316-2.394-.12 6.232-1.798 2.996 3.116 8.87s.36 2.995.6 4.074c.24 1.078 1.56 3.236 1.56 3.236z" fill="url(#h)"/><path d="M25.648 5.723l-6.233 4.195-5.273-4.554-.36 6.472-3.954.24.958 3.355-5.393 3.24c9.588 5.272 11.026 5.872 19.655 9.347l-.12-6.83 2.997-1.08-.72-2.277s2.158-2.638 5.034-6.713c-3.24.12-6.235.84-6.235.84z" fill="#f1f1f1" fill-opacity=".986"/><path d="m20.339,11.017-5.975,2.754 0.042,5.042 4.661,3.220 4.831,-2.924 0,-4.703z" fill="url(#j)"/></svg>
